<svg xmlns="http://www.w3.org/2000/svg" width="21" height="19.075"><path fill="#000" fill-rule="nonzero" d="m16.35 18.775-1.4-1.425a1.019 1.019 0 0 1-.275-.713c0-.274.092-.504.275-.687a.933.933 0 0 1 .688-.275c.274 0 .512.092.712.275l1.425 1.4c.2.2.3.438.3.712 0 .275-.1.513-.3.713-.2.2-.438.3-.712.3a.973.973 0 0 1-.713-.3ZM4 19c-1.1 0-2.042-.392-2.825-1.175C.392 17.042 0 16.1 0 15s.392-2.042 1.175-2.825C1.958 11.392 2.9 11 4 11c.8 0 1.537.217 2.213.65a3.685 3.685 0 0 1 1.462 1.775l.25.575h.6c.7 0 1.287.242 1.762.725.475.483.713 1.075.713 1.775s-.242 1.292-.725 1.775C9.792 18.758 9.2 19 8.5 19H4Zm8.975-2.8a4.366 4.366 0 0 0-1.137-2.725c-.692-.767-1.563-1.242-2.613-1.425a5.837 5.837 0 0 0-2.087-2.138A6.54 6.54 0 0 0 4.25 9a5.827 5.827 0 0 1 2.225-2.912A6.062 6.062 0 0 1 10 5c1.667 0 3.083.583 4.25 1.75C15.417 7.917 16 9.333 16 11a5.928 5.928 0 0 1-.8 3.012 5.786 5.786 0 0 1-2.225 2.188ZM18 12a.968.968 0 0 1-.712-.287A.968.968 0 0 1 17 11c0-.283.096-.52.288-.713A.968.968 0 0 1 18 10h2c.283 0 .52.096.712.287.192.192.288.43.288.713s-.096.52-.288.713A.968.968 0 0 1 20 12h-2ZM3.65 6.05 2.225 4.625a.948.948 0 0 1-.275-.7c0-.283.092-.517.275-.7.2-.2.438-.3.712-.3.276 0 .513.1.713.3l1.4 1.425c.183.2.275.438.275.712a.933.933 0 0 1-.275.688.948.948 0 0 1-.7.275.948.948 0 0 1-.7-.275Zm11.3 0a.933.933 0 0 1-.275-.688c0-.274.092-.512.275-.712l1.4-1.425c.2-.2.438-.3.712-.3.275 0 .513.1.713.3a.948.948 0 0 1 .275.7.948.948 0 0 1-.275.7L16.35 6.05a.948.948 0 0 1-.7.275.948.948 0 0 1-.7-.275ZM10 4a.968.968 0 0 1-.713-.288A.968.968 0 0 1 9 3V1c0-.283.096-.52.287-.713A.968.968 0 0 1 10 0c.283 0 .52.096.713.287.191.192.287.43.287.713v2c0 .283-.096.52-.287.712A.968.968 0 0 1 10 4Z"/></svg>